PathFileType	4	(X/Y/Z)	E:/Marcel_BSc/Hannes_22_01_2025/22-01-2025/static_01_hjc.trc	
DataRate	CameraRate	NumFrames	NumMarkers	Units	OrigDataRate	OrigDataStartFrame	OrigNumFrames	
200.00	200.00	4	72	mm	200.00	1	497	
Frame#	Time	FHD			LBHD			RBHD			RBAR			LBAR			RASI			RSACR			LSACR			LASI			USACR			C7			CLAV			T10			RSHO			LSHO			LTHI1			LTHI3			LTHI2			LLFC			LMFC			LTIB1			LTIB2			LTIB3			LMMAL			LLMAL			LHEE			LMT1			LMT5			LMT3			RTHI1			RTHI2			RTHI3			RLFC			RMFC			RTIB1			RTIB3			RTIB2			RLMAL			RMMAL			RHEE			RMT5			RMT1			RMT3			LMEP			LLEP			LDUPA			LMUPA			LUUPA			LUL			LRAD			LRFIN			RUL			RRAD			RUFIN			RMEP			RLEP			RMUPA			RDUPA			RUUPA			*59			*60			*61			*62			*63			*64			*65			RAJC			LAJC			LKJC			RKJC			LHJC			RHJC			
		X1	Y1	Z1	X2	Y2	Z2	X3	Y3	Z3	X4	Y4	Z4	X5	Y5	Z5	X6	Y6	Z6	X7	Y7	Z7	X8	Y8	Z8	X9	Y9	Z9	X10	Y10	Z10	X11	Y11	Z11	X12	Y12	Z12	X13	Y13	Z13	X14	Y14	Z14	X15	Y15	Z15	X16	Y16	Z16	X17	Y17	Z17	X18	Y18	Z18	X19	Y19	Z19	X20	Y20	Z20	X21	Y21	Z21	X22	Y22	Z22	X23	Y23	Z23	X24	Y24	Z24	X25	Y25	Z25	X26	Y26	Z26	X27	Y27	Z27	X28	Y28	Z28	X29	Y29	Z29	X30	Y30	Z30	X31	Y31	Z31	X32	Y32	Z32	X33	Y33	Z33	X34	Y34	Z34	X35	Y35	Z35	X36	Y36	Z36	X37	Y37	Z37	X38	Y38	Z38	X39	Y39	Z39	X40	Y40	Z40	X41	Y41	Z41	X42	Y42	Z42	X43	Y43	Z43	X44	Y44	Z44	X45	Y45	Z45	X46	Y46	Z46	X47	Y47	Z47	X48	Y48	Z48	X49	Y49	Z49	X50	Y50	Z50	X51	Y51	Z51	X52	Y52	Z52	X53	Y53	Z53	X54	Y54	Z54	X55	Y55	Z55	X56	Y56	Z56	X57	Y57	Z57	X58	Y58	Z58	X59	Y59	Z59	X60	Y60	Z60	X61	Y61	Z61	X62	Y62	Z62	X63	Y63	Z63	X64	Y64	Z64	X65	Y65	Z65	X66	Y66	Z66	X67	Y67	Z67	X68	Y68	Z68	X69	Y69	Z69	X70	Y70	Z70	X71	Y71	Z71	X72	Y72	Z72	

1	0.000	68.35300	1220.94055	1709.99231	152.78706	1120.11743	1680.45947	165.44083	1314.35999	1675.68323	-530.28503	2111.31006	25.79549	-499.53058	-112.35620	36.30026	111.26706	1330.09521	988.40509	304.27994	1256.41382	1049.92065	304.64429	1149.05688	1055.34802	117.86021	1061.10681	995.01605	305.12054	1201.99255	1074.54663	296.80728	1206.89050	1492.78333	126.49587	1207.04102	1449.15991	295.18625	1202.45361	1170.51855	276.09311	1366.60657	1484.25854	274.82660	1046.57996	1491.11914	213.76642	983.14233	791.85150	234.87465	982.65588	728.94794	184.90436	973.69366	732.04480	223.94714	998.86572	504.41263	207.13353	1106.77368	464.97729	269.50162	961.85400	267.83041	319.93817	966.85718	277.95227	306.22339	968.50708	214.07294	277.39160	1054.50830	86.12663	309.63809	965.96429	80.18462	354.49051	1015.27716	22.00221	142.82877	996.76270	40.02653	185.68480	915.68964	26.59748	149.06013	948.58478	30.11004	223.36508	1410.65979	782.07141	191.44359	1417.61914	724.37250	240.91391	1409.19324	717.70831	218.71596	1384.37512	495.03174	196.40802	1277.29993	477.58502	245.35472	1414.77319	277.09952	268.80804	1414.12402	215.75073	295.28113	1423.01257	274.37274	295.20483	1410.02844	79.85654	257.54724	1322.73755	83.40157	343.84912	1366.27844	30.20928	184.03326	1460.86340	27.28039	124.55970	1389.70630	35.99140	135.66748	1438.13025	28.46243	218.47371	769.49408	1357.14343	281.34991	761.95667	1447.54956	290.13095	828.92407	1440.96582	255.87103	887.72247	1482.68115	293.23413	890.21259	1449.61206	201.17278	519.74329	1480.66479	159.12935	534.36694	1501.67834	116.78247	433.99606	1493.29504	219.08603	1900.97815	1465.44165	175.81128	1884.15125	1490.05017	159.15004	1996.58167	1485.15344	232.86182	1638.42468	1350.66162	297.89780	1653.66772	1438.93640	312.45413	1548.18933	1425.63318	292.05225	1585.89441	1450.25024	292.18124	1509.44702	1470.89661	-535.80658	1937.85767	32.94586	-507.56708	-22.66616	40.76415																276.37604	1366.38300	81.62906	293.51485	1010.23630	83.15562	215.54034	1052.81970	484.69496	207.56199	1330.83752	486.30838	211.25225	1105.08185	1025.18204	207.77350	1293.25452	1019.16287 
2	0.005	68.31602	1220.92236	1709.98669	152.75679	1120.09338	1680.44617	165.38252	1314.34949	1675.69043	-530.32086	2111.25488	25.75326	-499.53033	-112.35627	36.29471	111.29568	1330.10925	988.42664	304.26013	1256.41321	1049.92932	304.61349	1149.05664	1055.35266	117.82322	1061.12280	995.00671	305.08969	1201.99695	1074.54883	296.76236	1206.88416	1492.79822	126.46514	1207.04895	1449.14209	295.14273	1202.45227	1170.51807	276.06573	1366.60168	1484.27039	274.77747	1046.58008	1491.10669	213.74179	983.13495	791.86157	234.85358	982.65997	728.94073	184.87209	973.70972	732.02655	223.91649	998.87408	504.39667	207.12030	1106.77356	464.96887	269.51532	961.83862	267.83838	319.93536	966.84814	277.95779	306.22757	968.49170	214.08578	277.39319	1054.51855	86.13584	309.64096	965.95465	80.18796	354.48553	1015.27344	22.01334	142.83260	996.76318	40.01883	185.69501	915.69171	26.58990	149.05487	948.58746	30.11731	223.35600	1410.67395	782.07184	191.44977	1417.62537	724.38599	240.90390	1409.18701	717.70923	218.71722	1384.38831	495.02661	196.78502	1277.67163	477.85641	245.34227	1414.76770	277.11240	268.81076	1414.11902	215.74550	295.29147	1422.99512	274.36716	295.20993	1410.02673	79.86247	257.55429	1322.73938	83.40729	343.85132	1366.28125	30.19557	184.09952	1460.96826	27.43135	124.55366	1389.71106	35.99744	135.66425	1438.12769	28.45928	218.40839	769.50012	1357.12244	281.40594	762.05682	1447.74365	290.26126	828.99182	1441.13794	255.81207	887.72009	1482.66785	293.17883	890.20215	1449.60425	201.08138	519.75537	1480.64856	159.03830	534.36957	1501.66345	116.69417	434.00983	1493.29553	219.06023	1900.98181	1465.46265	175.78581	1884.15332	1490.06628	159.12187	1996.58752	1485.16565	232.83008	1638.43384	1350.67981	297.87311	1653.66992	1438.95166	312.41205	1548.19263	1425.65051	292.01059	1585.89966	1450.26257	291.81879	1509.46814	1470.87183				-507.25574	-22.93166	40.79703	-513.99561	16.16626	46.65947	-575.44171	1992.77002	7.39563										276.38211	1366.38306	81.63488	293.51707	1010.23660	83.16190	215.51839	1052.82382	484.68277	207.75112	1331.02997	486.44151	211.21836	1105.08972	1025.17969	207.77791	1293.26123	1019.17798 
3	0.010	68.24892	1220.87720	1709.99048	152.73141	1120.08655	1680.44434	165.31981	1314.32800	1675.69421	-530.27881	2111.31836	25.79750	-499.53094	-112.36068	36.29768	111.22133	1330.12488	988.39044	304.23889	1256.41589	1049.93652	304.58029	1149.04663	1055.35181	117.78620	1061.13672	994.99963	305.06268	1201.99866	1074.55505	296.72794	1206.88013	1492.79321	126.42748	1207.05627	1449.14221	295.12180	1202.45679	1170.51746	276.02487	1366.60852	1484.27441	274.73734	1046.57996	1491.10925	213.69768	983.12836	791.85529	234.84622	982.65350	728.93872	184.85350	973.72760	732.02899	223.90019	998.88483	504.39203	207.10324	1106.77771	464.97055	269.49820	961.84882	267.84454	319.92496	966.85004	277.95267	306.22748	968.50409	214.09077	277.39667	1054.51160	86.13352	309.64780	965.94482	80.18605	354.48923	1015.26489	22.00949	142.82312	996.76208	40.02095	185.69206	915.69189	26.59616	149.05742	948.58740	30.11182	223.34079	1410.66492	782.06689	191.45161	1417.63440	724.38147	240.89449	1409.20496	717.71851	218.70642	1384.39404	495.02637	196.76904	1277.67651	477.85175	245.18253	1414.11267	276.97681	268.81216	1414.12500	215.74947	295.28375	1423.01086	274.36823	295.20267	1410.02539	79.85136	257.54984	1322.74048	83.41004	343.85300	1366.28101	30.20622	184.03642	1460.86548	27.27778	124.55735	1389.71509	35.99437	135.66260	1438.12561	28.45995	218.35493	769.49036	1357.10938	281.34042	762.05048	1447.73975	290.20987	828.98248	1441.14246	255.75818	887.71466	1482.66370	293.12662	890.19971	1449.59473	201.00797	519.75574	1480.64771	158.94479	534.37982	1501.65857	116.60485	434.02802	1493.29089	219.19383	1902.16296	1465.53040	175.74754	1884.15259	1490.09021	159.09430	1996.59375	1485.18518	232.27107	1637.91760	1351.08728	297.83682	1653.66516	1438.97485	312.37936	1548.19666	1425.66162	291.97849	1585.90173	1450.26917	292.09842	1509.46985	1470.91687	-535.23114	1939.37622	33.09734	-506.36728	-31.88806	40.72082	-514.57825	15.93099	46.54053													276.37625	1366.38293	81.63070	293.52223	1010.22821	83.15979	215.50172	1052.83127	484.68129	207.73773	1331.03528	486.43906	211.18325	1105.09167	1025.17572	207.73011	1293.27039	1019.16348 
4	0.015	68.21246	1220.86475	1709.98511	152.69679	1120.06812	1680.42761	165.26323	1314.31165	1675.71118	-530.29187	2111.30005	25.80026	-499.53415	-112.36460	36.29832	111.20139	1330.13245	988.38739	304.21548	1256.41870	1049.94373	304.55106	1149.04456	1055.35693	117.75065	1061.15332	994.99823	305.03900	1201.99036	1074.55823	296.68286	1206.89282	1492.79968	126.38726	1207.06592	1449.14087	295.09186	1202.44739	1170.51904	275.99789	1366.61487	1484.27747	274.69669	1046.58447	1491.09265	213.67912	983.13953	791.83093	234.81090	982.64734	728.93457	184.82735	973.73663	732.00299	223.88206	998.88684	504.39337	207.09479	1106.79431	464.96533	269.47977	961.84930	267.83450	319.90714	966.84644	277.96091	306.21210	968.51422	214.09639	277.39603	1054.51270	86.13934	309.64139	965.94812	80.19896	354.48639	1015.27325	22.02074	142.82806	996.77234	40.01831	185.68765	915.69189	26.58901	149.05714	948.58472	30.11505	223.35457	1410.67456	782.07043	191.44768	1417.64795	724.37244	240.90666	1409.18311	717.71252	218.69948	1384.40015	495.02243	196.76227	1277.68542	477.84552	245.34006	1414.78040	277.11050	268.80823	1414.13428	215.74779	295.27307	1422.99854	274.35126	295.21332	1410.01489	79.85890	257.54416	1322.74158	83.40127	343.85315	1366.28430	30.20414	184.10225	1460.96106	27.42666	124.56205	1389.71204	35.99311	135.66779	1438.13245	28.46264	218.29747	769.49054	1357.09338	281.27383	762.04285	1447.73279	290.13666	828.97699	1441.12378	255.70103	887.71411	1482.64990	293.05927	890.19354	1449.57983	200.90749	519.76178	1480.62390	158.86902	534.38629	1501.65991	116.50622	434.03751	1493.28564	219.16521	1902.16260	1465.54895	175.72028	1884.14941	1490.10620	159.06308	1996.59729	1485.21143	232.76981	1638.44885	1350.69543	297.80869	1653.66919	1438.98010	312.35532	1548.20056	1425.66748	292.37872	1586.64063	1449.80762	292.06720	1509.46509	1470.92200				-507.37961	-20.91862	39.50207				-576.63489	2002.20044	6.58185										276.37874	1366.37823	81.63008	293.51871	1010.23041	83.16915	215.48843	1052.84058	484.67935	207.73087	1331.04279	486.43398	211.15085	1105.09894	1025.17758	207.70844	1293.27557	1019.16556 
